<svg width="1440" height="320" viewBox="0 0 1440 320" fill="none" xmlns="http://www.w3.org/2000/svg">
  <g transform="translate(24 24) scale(0.53125)">
    <rect x="18" y="18" width="476" height="476" rx="124" fill="#111834"/>
    <rect x="18" y="18" width="476" height="476" rx="124" stroke="#252F5F" stroke-width="2" opacity="0.7"/>

    <circle cx="256" cy="256" r="170" stroke="#86E4FF" stroke-width="16"/>
    <circle cx="256" cy="256" r="170" stroke="white" stroke-opacity="0.08" stroke-width="2"/>

    <rect x="136" y="198" width="240" height="116" rx="58" fill="#0A1028" stroke="#9EEBFF" stroke-opacity="0.5" stroke-width="4"/>
    <circle cx="146" cy="256" r="48" fill="#0A1028" stroke="#9EEBFF" stroke-opacity="0.65" stroke-width="4"/>
    <circle cx="366" cy="256" r="48" fill="#0A1028" stroke="#D87DD8" stroke-opacity="0.7" stroke-width="4"/>
    <ellipse cx="256" cy="256" rx="72" ry="38" fill="#C9D2F2" opacity="0.28"/>

    <rect x="137" y="223" width="18" height="66" rx="6" fill="#CBFFF8"/>
    <rect x="113" y="247" width="66" height="18" rx="6" fill="#CBFFF8"/>

    <rect x="222" y="233" width="68" height="12" rx="6" fill="#F7F8FB"/>
    <rect x="222" y="267" width="68" height="12" rx="6" fill="#F7F8FB"/>

    <circle cx="366" cy="226" r="12" fill="#FF5EA8" stroke="white" stroke-opacity="0.7" stroke-width="2"/>
    <circle cx="396" cy="256" r="12" fill="#FFD65A" stroke="white" stroke-opacity="0.7" stroke-width="2"/>
    <circle cx="366" cy="286" r="12" fill="#73A8FF" stroke="white" stroke-opacity="0.7" stroke-width="2"/>
    <circle cx="336" cy="256" r="12" fill="#68F0A6" stroke="white" stroke-opacity="0.7" stroke-width="2"/>
  </g>

  <text x="328" y="156" fill="#F3F6FF" font-size="118" font-weight="700" font-family="Arial, Helvetica, sans-serif">CELO ARCADE</text>
  <text x="332" y="224" fill="#AFC2E6" font-size="42" font-weight="700" font-family="Arial, Helvetica, sans-serif">Play. Compete. Win.</text>
</svg>
